<?xml version="1.0" encoding="iso-8859-1"?>
<!-- Generator: Adobe Illustrator 16.0.0, SVG Export Plug-In . SVG Version: 6.00 Build 0)  -->
<!DOCTYPE svg PUBLIC "-//W3C//DTD SVG 1.1//EN" "http://www.w3.org/Graphics/SVG/1.1/DTD/svg11.dtd">
<svg version="1.1" id="Capa_1" xmlns="http://www.w3.org/2000/svg" xmlns:xlink="http://www.w3.org/1999/xlink" x="0px" y="0px"
	 width="528.046px" height="528.045px" viewBox="0 0 528.046 528.045" style="enable-background:new 0 0 528.046 528.045;"
	 xml:space="preserve">
<g>
	<g>
		<path d="M152.708,220.94c-19.427-8.044-38.82-16.172-58.229-24.268c-9.017-3.764-18.095-3.847-27.104-0.12
			c-19.434,8.039-38.819,16.181-58.224,24.282c-4.378,1.831-8.63,3.824-9.106,9.401c-0.502,5.9,3.27,8.865,7.788,11.473
			c20.643,11.9,45.327,26.295,65.939,38.243c1.985,1.274,0.377,4.569-2.326,2.856c-16.079-9.353-33.798-20.131-49.771-29.424
			l0.014,3.618c16.288,9.624,32.945,19.622,49.229,29.245c4.22,2.146,1.547,5.188-0.82,3.644
			c-15.364-8.931-33.366-20.062-48.734-28.989l-0.004,3.646c16.709,9.953,33.787,20.088,52.021,30.946
			c2.415,1.464,0.442,4.216-3.342,1.812c-0.87-0.474-5.973-3.642-7.153-4.341l-41.698-24.174l-0.015,6.131l44.728,28.317
			c9.98,5.808,19.977,5.737,29.95-0.093c6.323-3.693,12.669-7.35,19.574-11.348c0.603,4.564,0.719,7.979,1.581,11.188
			c0.683,2.549,3.017,4.02,5.697,3.971c2.651-0.047,4.706-1.524,5.732-4.039c1.062-2.598,0.582-5.847-1.781-6.511
			c-8.646-2.419-6.252-9.108-6.348-14.812c-0.139-8.053-0.279-16.115,0.027-24.158c0.22-5.717-1.966-9.186-7.189-11.564
			c-8.015-3.649-15.769-7.86-23.634-11.833c0.524-1.343,1.052-2.688,1.578-4.031c8.325,4.125,16.585,8.397,25.005,12.324
			c6.38,2.978,9.224,7.663,9.031,14.7c-0.247,9.129-0.059,18.271-0.059,28.1c12.03-4.1,15.178-12.271,14.87-22.605l0.033-12.591
			l11.162-6.806c0,0,2.127-1.262,3.22-1.839c4.391-2.297,7.762-5.514,7.367-10.81C161.319,225.126,157.207,222.803,152.708,220.94z
			 M80.668,223.857c2.869,0.373,7.021-0.286,7.106,3.575c0.071,3.313-4.007,3.135-6.518,3.227c-2.873,0.109-7.285,0.298-7.521-3.127
			C73.469,223.729,77.822,224.253,80.668,223.857z M79.916,280.13l0.037,18.42C75.151,292.811,75.404,284.272,79.916,280.13z
			 M96.169,261.878c8.485-4.563,14.416-8.135,14.416-8.135l3.305,2.444c0,0-17.423,11.135-26.921,14.008
			c-5.013,1.891-13.071,0.822-17.873-2.18c-19.477-11.314-38.922-22.676-58.314-34.137c-1.804-1.067-5.23-2.321-3.572-4.972
			c1.215-1.948,3.279,0.689,6.34,2.264c17.641,10.173,35.248,20.326,52.687,30.912C76.964,268.6,85.148,267.684,96.169,261.878z
			 M152.68,231.971c0,0-17.729,10.552-20.949,12.253c-1.514,0.712-3.984-1.775-0.763-3.434c7.965-4.55,10.662-5.984,18.608-10.569
			C152.896,228.305,154.502,230.693,152.68,231.971z"/>
		<path d="M130.997,304.016c-1.331,5.437-6.717,5.262-6.717,5.262c-0.131,0.396-0.216,1.613-0.295,2.164
			c-1.053,7.146-1.42,14.423-1.053,22.582c0,0,6.957,1.517,12.924-3.418L130.997,304.016z"/>
		<path d="M119.516,308.617c0.522-1.949-5.044,19.481-2.718,24.504l4.043,0.846c-1.895-11.172,0.79-18.096,2.092-24.854
			C121.694,309.285,120.128,308.964,119.516,308.617z"/>
		<path d="M115.262,305.671c0.779-1.551-6.772,15.607-4.743,25.767c0,0,2.252,0.604,3.178,0.771
			c0.114-10.229,1.041-14.33,4.058-24.729C118.055,307.494,116.362,307.044,115.262,305.671z"/>
		<g>
			<path d="M227.818,215.392l4.084,1.63l-5.226,19.629l-7.293-26.047l-7.348,0.436l-7.618,25.662l-4.68-19.68l3.971-1.63v-4.788
				l-16.162,0.275v4.512l3.811,1.579l8.818,31.967h7.507c0.222-0.728,1.316-4.323,3.294-10.795c1.976-6.47,3.4-11.481,4.272-15.034
				l7.13,25.829h7.727l9.304-31.916l3.918-1.63v-4.788l-15.509,0.275V215.392L227.818,215.392z"/>
			<polygon points="269.227,242.572 258.295,242.572 258.295,232.083 264.899,232.083 264.899,234.234 269.928,234.234 
				269.928,224.046 264.899,224.046 264.899,226.104 258.295,226.104 258.295,217.022 268.509,217.022 268.472,221.096 
				273.537,221.096 273.537,210.604 258.295,210.604 245.78,210.878 245.78,215.392 249.859,217.022 249.859,242.848 
				245.78,244.207 245.78,248.937 274.189,248.937 274.189,238.062 269.179,238.062 			"/>
			<path d="M301.777,228.981c4.354-1.375,6.524-4.366,6.524-8.971c0-3.113-1.076-5.462-3.23-7.04
				c-2.158-1.579-5.07-2.367-8.737-2.367h-5.712l-12.354,0.275v4.512l4.08,1.63v25.826c-1.812,0.579-3.176,1.032-4.08,1.36v4.73
				h17.143c9.435,0,14.141-3.755,14.141-11.257C309.549,233.372,306.964,230.468,301.777,228.981z M290.622,217.022h4.625
				c1.377,0,2.496,0.353,3.348,1.062c0.853,0.703,1.281,1.744,1.281,3.121c0,3.376-2.029,5.061-6.097,5.061h-3.157V217.022
				L290.622,217.022z M299.467,241.266c-0.999,0.875-2.44,1.306-4.33,1.306h-4.518v-10.601h3.157c2.463,0,4.274,0.468,5.439,1.389
				c1.161,0.927,1.738,2.361,1.738,4.32C300.961,239.204,300.459,240.402,299.467,241.266z"/>
			<path d="M343.51,210.604h-5.17l-12.521,0.275v4.512l4.086,1.63v25.826l-4.086,1.36v4.73h16.874c5.557,0,9.958-1.758,13.225-5.275
				c3.266-3.518,4.901-8.317,4.901-14.408c0-6.053-1.51-10.675-4.521-13.863C353.289,212.202,349.023,210.604,343.51,210.604z
				 M349.385,239.56c-1.521,2.009-3.695,3.012-6.526,3.012h-4.519v-25.55h4.896c2.759,0,4.854,0.978,6.284,2.935
				c1.434,1.959,2.146,5.146,2.146,9.57C351.67,234.204,350.91,237.548,349.385,239.56z"/>
			<polygon points="388.304,242.572 377.412,242.572 377.412,232.083 384.895,232.083 384.895,234.234 389.921,234.234 
				389.921,224.046 384.895,224.046 384.895,226.104 377.412,226.104 377.412,217.022 387.585,217.022 387.588,221.096 
				392.651,221.096 392.651,210.604 377.412,210.604 364.894,210.878 364.894,215.392 368.979,217.022 368.979,242.848 
				364.894,244.207 364.894,248.937 393.302,248.937 393.302,238.062 388.294,238.062 			"/>
			<path d="M420.543,228.436c-1.362-0.757-2.828-1.466-4.409-2.117c-1.58-0.654-3.048-1.188-4.405-1.604
				c-1.36-0.419-2.499-0.991-3.402-1.716c-0.908-0.723-1.358-1.578-1.358-2.553c0-1.119,0.494-2.048,1.491-2.774
				c0.999-0.723,2.425-1.087,4.276-1.087c1.559,0,3.153,0.272,4.785,0.818l1.364,4.622h5.002l0.271-9.898l-1.637-0.543
				c-1.084-0.364-2.628-0.726-4.62-1.089c-1.994-0.359-3.897-0.54-5.714-0.54c-4.104,0-7.434,1.004-9.987,3.016
				c-2.56,2.008-3.833,4.848-3.833,8.509c0,2.103,0.452,3.924,1.354,5.465c0.908,1.538,2.044,2.697,3.402,3.48
				c1.359,0.775,2.842,1.5,4.438,2.175c1.593,0.671,3.075,1.199,4.436,1.604c1.363,0.398,2.493,0.963,3.4,1.684
				c0.903,0.726,1.361,1.578,1.361,2.556c0,1.375-0.641,2.456-1.909,3.23c-1.269,0.781-2.832,1.174-4.679,1.174
				c-2.105,0-3.883-0.382-5.332-1.142l-0.818-4.567h-5.551v10.439l1.64,0.491c1.119,0.358,2.695,0.717,4.729,1.058
				c2.027,0.341,3.949,0.517,5.771,0.517c4.314,0,7.847-1.113,10.583-3.343c2.744-2.229,4.107-5.322,4.107-9.272
				c0-1.994-0.454-3.729-1.356-5.222C423.033,230.324,421.9,229.2,420.543,228.436z"/>
			<polygon points="429.163,215.392 433.249,217.022 433.249,242.848 429.163,244.207 429.163,248.937 445.763,248.937 
				445.763,244.207 441.684,242.848 441.684,217.022 445.763,215.392 445.763,210.604 429.163,210.674 			"/>
			<path d="M470.087,233.601l4.08,1.256v6.849l-0.871,0.272c-0.574,0.146-1.366,0.298-2.365,0.461
				c-0.999,0.164-1.913,0.244-2.749,0.244c-6.167,0-9.248-4.206-9.248-12.613c0-8.883,3.026-13.321,9.087-13.321
				c2.396,0,4.444,0.29,6.146,0.867l1.361,4.679h5.062l0.271-9.786l-1.687-0.651c-1.161-0.437-2.793-0.861-4.897-1.277
				c-2.104-0.422-4.131-0.626-6.097-0.626c-5.62,0-10.082,1.811-13.39,5.437c-3.299,3.625-4.951,8.607-4.951,14.948
				c0,6.273,1.518,11.051,4.55,14.33c3.027,3.282,7.312,4.923,12.864,4.923c2.729,0,5.374-0.336,7.946-1.007
				c2.573-0.674,4.257-1.205,5.034-1.606c0.777-0.398,1.391-0.737,1.823-1.033v-11.09l3.697-1.256v-4.728l-15.673,0.272
				L470.087,233.601L470.087,233.601z"/>
			<polygon points="512.534,210.878 512.534,215.392 516.506,217.022 516.506,235.721 501.81,210.604 488.753,210.878 
				488.753,215.392 492.835,217.022 492.835,242.848 488.753,244.207 488.753,248.937 504.536,248.937 504.536,244.207 
				500.289,242.848 500.289,224.308 514.878,248.937 523.962,248.937 523.962,217.022 528.046,215.392 528.046,210.604 			"/>
		</g>
		<g>
			<path d="M198.71,266.403v20.021h6.514l0.938-4.812h4.045v9.795h-21.296v-3.708l3.192-1.06v-20.236l-3.192-1.275v-3.541
				l12.99-0.212v3.75L198.71,266.403z"/>
			<path d="M224.307,287.698v3.708h-12.99v-3.708l3.193-1.061v-20.234l-3.193-1.276v-3.541l12.99-0.212v3.75l-3.192,1.276v20.233
				L224.307,287.698z"/>
			<path d="M236.447,261.374h4.474c2.869,0,5.144,0.621,6.833,1.855c1.691,1.229,2.537,3.067,2.537,5.519
				c0,3.604-1.704,5.946-5.11,7.026c4.06,1.164,6.093,3.437,6.093,6.815c0,5.875-3.696,8.813-11.074,8.813h-13.423v-3.708
				c0.713-0.254,1.776-0.607,3.198-1.062v-20.229l-3.198-1.276v-3.541L236.447,261.374z M236.447,266.403v7.24h2.469
				c3.181,0,4.772-1.321,4.772-3.961c0-1.08-0.336-1.896-1-2.451c-0.669-0.551-1.536-0.828-2.622-0.828H236.447z M238.916,278.116
				h-2.469v8.308h3.536c1.477,0,2.605-0.342,3.388-1.023c0.779-0.678,1.171-1.613,1.171-2.809c0-1.533-0.454-2.663-1.363-3.389
				C242.267,278.477,240.846,278.116,238.916,278.116z"/>
			<path d="M309.543,286.716l-9.156-25.343l-6.814,0.132l-9.369,25.211l-3.107,0.979v0.019l-3.112-0.995l-2.854-5.835
				c-0.479-1.021-1.076-1.945-1.785-2.771c3.209-1.592,4.812-4.271,4.812-8.051c0-2.868-0.956-5.032-2.874-6.496
				c-1.917-1.461-4.649-2.195-8.196-2.195h-3.239l-9.8,0.212v3.541l3.197,1.276v20.231l-3.197,1.062v3.708h12.865v-3.708
				l-3.065-1.062v-7.028h1.494c1.073,0,1.836,0.229,2.273,0.683c0.438,0.457,1.045,1.534,1.812,3.235l3.576,7.881l8.094-0.004v0.004
				h12.861v-3.708l-3.32-1.021l1.062-3.148h9.46l1.021,3.194l-3.188,0.979v3.708h13.54v-3.708L309.543,286.716z M270.188,273.962
				c-0.938,0.781-2.244,1.168-3.923,1.168h-2.426v-8.729h3.49c1.31,0,2.344,0.393,3.11,1.17c0.768,0.782,1.149,1.811,1.149,3.087
				C271.59,272.082,271.122,273.175,270.188,273.962z M293.188,278.973l3.363-10.103l3.191,10.103H293.188z"/>
			<path d="M326.876,287.698v3.708h-12.863v-3.708l3.194-1.061v-20.234l-3.194-1.276v-3.541l9.801-0.212h3.235
				c3.549,0,6.281,0.734,8.197,2.195c1.917,1.464,2.875,3.628,2.875,6.496c0,3.776-1.604,6.459-4.812,8.051
				c0.709,0.822,1.306,1.749,1.784,2.771l2.855,5.834l2.896,0.979v3.708h-7.88l-3.578-7.881c-0.769-1.701-1.37-2.779-1.81-3.234
				c-0.439-0.453-1.201-0.684-2.278-0.684h-1.49v7.031L326.876,287.698z M323.812,266.403v8.729h2.429
				c1.673,0,2.979-0.387,3.918-1.168c0.938-0.784,1.401-1.883,1.401-3.306c0-1.276-0.38-2.304-1.148-3.087
				c-0.766-0.777-1.8-1.17-3.108-1.17L323.812,266.403L323.812,266.403z"/>
			<path d="M358.99,287.698v3.708h-12.992v-3.708l3.188-1.061v-5.63l-7.793-14.737l-2.77-1.146v-3.542l12.057,0.029v3.513
				l-2.171,0.896l4.257,9.242l4.519-9.203l-2.349-0.938v-3.519l11.506-0.043v3.563l-2.938,1.146l-7.714,14.696v5.672L358.99,287.698
				z"/>
		</g>
	</g>
</g>
<g>
</g>
<g>
</g>
<g>
</g>
<g>
</g>
<g>
</g>
<g>
</g>
<g>
</g>
<g>
</g>
<g>
</g>
<g>
</g>
<g>
</g>
<g>
</g>
<g>
</g>
<g>
</g>
<g>
</g>
</svg>
